<svg xmlns="http://www.w3.org/2000/svg" width="363.708" height="100" viewBox="0 0 363.708 100"><g transform="translate(-100.664 -37)"><g transform="translate(199.322 51.626)"><path d="M563.115,375.089c-.339.265-.687.518-1.014.8-2,1.714-4.152,1.924-6.022.049a3.779,3.779,0,0,1,.027-5.729c1.857-1.853,4-1.792,5.995.025.312.284.675.511,1.014.764Z" transform="translate(-298.066 -368.843)" fill="#050605"/><path d="M320.727,395.131c7.177-8.574,17.07-8.163,22.176.542.321-.359.625-.651.871-.986,3.437-4.655,8.033-6.738,13.686-5.43,5.921,1.37,8.627,6.005,9,11.514.525,7.81.34,15.676.226,23.515-.044,3-2.6,1.083-3.956,1.446s-2.641.233-2.595-1.924c.12-5.568.07-11.14.023-16.71a25.4,25.4,0,0,0-.557-6.769c-.911-3.24-2.792-5.5-6.283-5.848-3.395-.336-5.9,1.306-7.654,4.122a10.687,10.687,0,0,0-1.442,5.87c.04,6.366-.125,12.736.08,19.1.087,2.687-1.478,2.316-3,2.2-1.551-.117-3.8,1.017-3.681-2.268.183-5.222.055-10.456.044-15.686,0-1.591,0-3.184-.1-4.771-.316-5.371-3.034-8.562-7.29-8.622-4.4-.064-8.508,3.861-8.682,8.816-.233,6.585-.286,13.19-.036,19.773.121,3.15-1.6,2.717-3.562,2.827-2.128.119-3.2-.127-3.167-2.8.126-10.341,0-20.686-.139-31.029-.022-1.664.165-2.694,2.1-2.359,1.5.259,3.96-1.1,3.723,2.192A27.381,27.381,0,0,0,320.727,395.131Z" transform="translate(-221.748 -375.21)" fill="#050605"/><path d="M431.469,420.253c-3.5,4.548-7.5,6.7-12.641,6.5-6.614-.256-11.256-4.868-11.69-12.645-.417-7.48-.182-15-.152-22.5.013-3.13,2.484-1.369,3.806-1.619,1.262-.239,3.021-.707,2.952,1.873-.138,5.225-.048,10.457-.037,15.686,0,1.705-.036,3.416.095,5.113.42,5.449,3.3,8.587,7.787,8.593a9.333,9.333,0,0,0,9.207-9.1c.148-6.476.241-12.967-.043-19.433-.136-3.1,1.469-2.795,3.475-2.844,2.146-.053,3.491-.035,3.435,2.93-.192,10.112-.035,20.232.005,30.349.006,1.565.489,3.244-2.207,2.967-2.014-.207-4.335.453-3.859-2.921A20.483,20.483,0,0,0,431.469,420.253Z" transform="translate(-251.059 -375.478)" fill="#050605"/><path d="M280.237,421.275c-3.395,3.354-6.752,5.227-10.982,5.208-5.544-.024-9.465-2.653-10.9-7.452a11.387,11.387,0,0,1,4.853-12.759,24.781,24.781,0,0,1,13.63-3.606c2.467-.017,3.211-.594,2.521-3.1-1-3.636-3.2-5.529-7.43-5.669a17.456,17.456,0,0,0-7.919,1.659c-1.042.479-2.112,1.2-2.507-.626-.274-1.264-1.7-2.657.56-3.664,5.372-2.4,10.877-3.328,16.518-1.3,4.672,1.681,6.9,5.5,7.292,10.207.677,8.033-.3,16.13.71,24.161.172,1.37-.6,1.657-1.591,1.422-1.482-.352-3.5,1.132-4.4-1.109A14.6,14.6,0,0,1,280.237,421.275Z" transform="translate(-203.698 -375.203)" fill="#050605"/><path d="M521.251,421.3c-3.543,3.408-7.1,5.33-11.581,5.164-4.842-.18-8.5-2.541-10.063-6.728a11.234,11.234,0,0,1,3.2-12.389c4.293-3.658,9.568-4.629,14.95-4.683,2.849-.028,3.231-.935,2.546-3.369-1-3.549-3.353-5.389-7.612-5.431a17.266,17.266,0,0,0-7.892,1.775c-.992.49-2.013.844-2.228-.656-.162-1.134-1.933-2.467.149-3.492,5.74-2.825,11.71-3.852,17.706-1.151,5.393,2.428,6.574,7.377,6.666,12.769.113,6.7-.321,13.4.37,20.09.107,1.041.887,2.913-1.361,2.489-1.609-.3-4.433,1.749-4.607-1.984C521.463,423.141,521.38,422.58,521.251,421.3Z" transform="translate(-280.308 -375.176)" fill="#050605"/><path d="M236.143,422.064c-7.111-.011-10.57-3.34-10.745-9.939-.164-6.239-.141-12.486,0-18.726.05-2.245-.372-3.48-2.894-3.038-2.3.4-2.764-.7-2.844-2.853-.095-2.561,1.35-2.5,2.964-2.28,2.311.31,3.04-.667,2.741-2.827a17.442,17.442,0,0,1-.017-2.381c0-3.413,1.845-5.092,5.3-5.035,1.5.025,1.247.994,1.259,1.847.031,2.156.082,4.316,0,6.469-.061,1.5.533,2.01,1.983,1.919,1.47-.091,2.954.046,4.424-.035,1.877-.1,3.089-.018,3.091,2.573,0,2.658-1.353,2.6-3.185,2.624-6.3.085-6.309.112-6.294,6.469.011,4.766-.066,9.537.123,14.3.168,4.209,1.89,5.642,6.074,5.411,1.347-.074,2.745-.675,2.765,1.623.016,1.752.395,3.51-2.164,3.67C237.591,421.923,236.464,422.037,236.143,422.064Z" transform="translate(-191.541 -370.795)" fill="#050605"/><path d="M189.433,426.435a20.845,20.845,0,0,1-9.481-1.507c-2.934-1.144-.732-2.946-.5-4.445.338-2.2,1.626-.818,2.466-.482,3.216,1.286,6.448,2.1,9.919,1.1a5.01,5.01,0,0,0,3.942-4.189,4.939,4.939,0,0,0-2.293-4.966c-1.953-1.424-4.28-2.032-6.445-2.988-6.083-2.684-8.592-6.591-7.485-11.737,1-4.667,5.774-8.03,11.579-8.238a24.255,24.255,0,0,1,7.04.932c2.51.653,2.806,1.887,1.89,4.211-.668,1.694-1.233,1.658-2.663,1.039a11.628,11.628,0,0,0-7.953-.8,4.712,4.712,0,0,0-3.72,3.963,4.129,4.129,0,0,0,2.5,4.437c2.713,1.389,5.578,2.483,8.286,3.881,3.194,1.649,5.327,4.137,5.6,7.933.459,6.5-3.654,11.045-10.819,11.84A11.009,11.009,0,0,1,189.433,426.435Z" transform="translate(-178.441 -375.241)" fill="#050605"/><path d="M473.368,395.7c2.385-2.932,4.529-5.679,8.185-6.567,1.292-.313,3.124-.876,3.831.178.984,1.466.444,3.508.248,5.283-.1.895-1.083.514-1.7.583-5.789.644-9.013,3.787-9.292,9.715-.283,6.006-.342,12.041-.1,18.047.127,3.127-1.568,2.749-3.546,2.839-2.091.1-3.216-.072-3.186-2.776.117-10.444-.025-20.892-.175-31.337-.025-1.675.5-2.414,2.076-2.048,1.331.309,3.751-1.379,3.669,1.831C473.337,392.868,473.368,394.286,473.368,395.7Z" transform="translate(-270.364 -375.156)" fill="#050605"/><path d="M562.715,407.875c0,5.336-.132,10.676.051,16.005.1,3.029-1.915,2.2-3.4,2.157-1.41-.042-3.481,1.049-3.444-2.062.13-10.67.095-21.342.025-32.013-.023-3.412,2.435-1.734,3.845-1.98,1.557-.271,3.087-.387,2.982,2.229C562.569,397.425,562.715,402.653,562.715,407.875Z" transform="translate(-298.43 -375.499)" fill="#050605"/><path d="M282.93,419.607c-.02,5.978-2.509,9.353-7.289,10.318-3.366.68-6.238-.622-7.36-3.337a6.824,6.824,0,0,1,2.563-8.372,16.647,16.647,0,0,1,10.753-2.253C284.5,416.223,281.8,418.88,282.93,419.607Z" transform="translate(-206.83 -383.79)" fill="#fdfdfd"/><path d="M523.93,419.689c-.015,5.943-2.617,9.485-7.517,10.289-2.89.474-5.43-.181-6.924-2.991a6.731,6.731,0,0,1,1.484-8.063c3.437-2.9,7.676-3.315,11.853-2.905C525.027,416.235,523.343,418.659,523.93,419.689Z" transform="translate(-283.436 -383.797)" fill="#fdfdfd"/></g><g transform="translate(100.664 37)"><g transform="translate(14.165 19.888)"><path d="M385.956,172.287a28.2,28.2,0,0,0-.1-3.4,23.131,23.131,0,0,0-1.211-5.5,14.115,14.115,0,0,1-.736-2.715,1.547,1.547,0,0,1,0-.564c.107-.5.432-.574.774-.336a8.427,8.427,0,0,1,2.092,2.335,22.527,22.527,0,0,1,2.95,6.664,36.184,36.184,0,0,1,1.007,5.406,31.627,31.627,0,0,1,.147,5.32,20.246,20.246,0,0,1-1.449,6.937,35.769,35.769,0,0,1-3.239,6.144,29.528,29.528,0,0,1-2.575,3.2,28.9,28.9,0,0,1-5.331,4.439,26.594,26.594,0,0,1-5.456,2.73,23.473,23.473,0,0,1-4.521,1.193,12.922,12.922,0,0,1-2.582.248c-.759-.026-1.513.06-2.279.02a23.71,23.71,0,0,1-5.286-.849,26.342,26.342,0,0,1-9.127-4.839,28.242,28.242,0,0,1-4.2-4.165,29.118,29.118,0,0,1-3.956-6.154,25.03,25.03,0,0,1-1.743-4.4,16.862,16.862,0,0,1-.506-3.555,33.164,33.164,0,0,1-.057-3.432,45.726,45.726,0,0,1,.454-5.315,31,31,0,0,1,.905-4.024,20.479,20.479,0,0,1,2.625-5.485,11.529,11.529,0,0,1,1.943-2.254c.235-.2.488-.374.778-.257s.286.426.288.707a7.017,7.017,0,0,1-.6,2.386,28.577,28.577,0,0,0-1.49,5.741,25.927,25.927,0,0,0-.236,2.982,14.354,14.354,0,0,0,.159,2.637,27.437,27.437,0,0,0,1.123,4.7,22.19,22.19,0,0,0,9.423,11.482,24.03,24.03,0,0,0,6.594,2.741,18.5,18.5,0,0,0,5.869.483,19,19,0,0,0,5.107-1.13,21.123,21.123,0,0,0,5.847-3.217,24.638,24.638,0,0,0,8.14-11.4,12.807,12.807,0,0,0,.453-2.995C385.995,174.023,385.956,173.247,385.956,172.287Z" transform="translate(-338.537 -159.638)" fill="#f09825" fill-rule="evenodd"/></g><path d="M377.7,308.456c-4.477-5.721-7.834-6.529-9.575-6.84a25.256,25.256,0,0,0-13.057,1.8c-6.716,3.171-15.057,7.343-15.057,7.343s-2.8,1.493-11.876,6.093-13.12,5.6-13.742,5.68c-3.689.29-4.974-.373-5.555-.746a8.185,8.185,0,0,1-3.15-5.1,10.054,10.054,0,0,1,1.7-7.5,13.775,13.775,0,0,1,11.98-5.016c-5.472-4.1-11.814-1.927-13.058-1.306A15.714,15.714,0,0,0,298.659,313c-1.554,7.337,1.244,11.192,1.554,11.752,4.477,5.721,7.835,6.529,9.576,6.84a25.252,25.252,0,0,0,13.057-1.8c6.715-3.171,15.057-7.344,15.057-7.344s2.8-1.492,11.876-6.093,13.12-5.6,13.742-5.679c3.689-.29,4.974.373,5.554.746a8.188,8.188,0,0,1,3.151,5.1,10.052,10.052,0,0,1-1.7,7.5s-4.445,5.146-10,4.69c-1.492-.207-3.026-.249-.622,1.41.622.331,6.2,3.055,11.7.222a15.714,15.714,0,0,0,7.648-10.135C380.807,312.87,378.009,309.016,377.7,308.456Z" transform="translate(-298.192 -231.767)" fill="#533b58" fill-rule="evenodd"/><g transform="translate(28.557 0)"><path d="M379.877,122.12a18.125,18.125,0,0,0,2.073,5.86A7.2,7.2,0,0,0,384,130.451a.483.483,0,0,0,.513.053c.236-.088.158-.263.179-.419a4.493,4.493,0,0,0-.349-1.821,19.842,19.842,0,0,1-.687-5.612,12.816,12.816,0,0,1,.218-2.835,10.9,10.9,0,0,1,.732-2.8,12.081,12.081,0,0,1,1.617-2.707,6.8,6.8,0,0,1,4.683-2.686,6.662,6.662,0,0,1,5.209,1.879,11.037,11.037,0,0,1,3.314,7.493,30.018,30.018,0,0,1-.1,3.379c-.169,1.113-.3,2.231-.483,3.342a15.685,15.685,0,0,0-.449,2.366c-.007.5.211.612.679.4a1.174,1.174,0,0,0,.355-.284,12.662,12.662,0,0,0,2.414-3.682,17.183,17.183,0,0,0,1.325-4.293,26.3,26.3,0,0,0,.282-4.213,19.114,19.114,0,0,0-1.2-6.611,13.689,13.689,0,0,0-3.619-5.6,10.523,10.523,0,0,0-10.475-2.254,11.071,11.071,0,0,0-5.745,4.714,16.65,16.65,0,0,0-2.22,5.225,27.526,27.526,0,0,0-.662,5A32.619,32.619,0,0,0,379.877,122.12Z" transform="translate(-379.527 -102.994)" fill="#533b58"/></g><path d="M373.349,192.217c11.79,0,21.348-10.008,21.348-22.353a23.014,23.014,0,0,0-3.068-11.534h-36.56A23.015,23.015,0,0,0,352,169.863C352,182.209,361.559,192.217,373.349,192.217Z" transform="translate(-333.109 -138.901)" fill="none"/></g></g></svg>